<?xml version="1.0" encoding="UTF-8"?>
<svg width="600px" height="600px" viewBox="0 0 600 600" version="1.1" xmlns="http://www.w3.org/2000/svg" xmlns:xlink="http://www.w3.org/1999/xlink">
    <!-- Generator: Sketch 47.1 (45422) - http://www.bohemiancoding.com/sketch -->
    <title>artboard</title>
    <desc>Created with Sketch.</desc>
    <defs></defs>
    <g id="Page-1" stroke="none" stroke-width="1" fill="none" fill-rule="evenodd">
        <g id="artboard">
            <g id="Group" transform="translate(30.000000, 31.000000)">
                <path d="M269.638,0.34 L266.138,2.36 L40.157,132.83 L36.657,134.85 L36.657,403.87 L40.157,405.89 L266.138,536.36 L269.638,538.38 L273.138,536.36 L499.12,405.89 L502.62,403.87 L502.62,134.85 L499.12,132.83 L273.138,2.36 L269.638,0.34 Z M269.638,8.42 L495.62,138.89 L495.62,399.83 L269.638,530.3 L43.657,399.83 L43.657,138.89 L269.638,8.42 L269.638,8.42 Z" id="Fill-110" fill="#9F7A45"></path>
                <polygon id="Stroke-111" stroke="#9F7A45" stroke-width="4" points="483.55 392.87 483.55 145.86 269.638 22.35 55.722 145.86 55.722 392.87 269.638 516.37"></polygon>
                <polygon id="Stroke-112" stroke="#9F7A45" stroke-width="4" stroke-linejoin="round" points="269.638 22.35 55.722 392.87 483.55 392.87"></polygon>
                <path d="M269.637,145.86 L162.679,207.61 L162.679,331.11 L269.637,392.87 L376.6,331.11 L376.6,207.61 L269.637,145.86 Z M269.637,153.94 L369.6,211.65 L369.6,327.07 L269.637,384.78 L169.679,327.07 L169.679,211.65 L269.637,153.94 L269.637,153.94 Z" id="Fill-113" fill="#9F7A45"></path>
                <polygon id="Stroke-114" stroke="#9F7A45" stroke-width="3" stroke-linecap="round" stroke-linejoin="round" stroke-dasharray="0,8" points="177.679 322.45 177.679 216.27 269.637 163.18 361.6 216.27 361.6 322.45 269.637 375.54"></polygon>
                <path d="M162.679,331.11 L376.6,331.11 L269.637,145.86 L162.679,331.11 Z M269.637,392.87 L376.6,207.61 L162.679,207.61 L269.637,392.87 Z" id="Stroke-115" stroke="#9F7A45" stroke-width="4" stroke-linejoin="round"></path>
                <path d="M255.179,269.36 C255.179,261.37 261.652,254.9 269.638,254.9 C277.624,254.9 284.1,261.37 284.1,269.36 C284.1,277.35 277.624,283.82 269.638,283.82 C261.652,283.82 255.179,277.35 255.179,269.36 Z" id="Stroke-116" stroke="#9F7A45" stroke-width="4"></path>
                <path d="M269.636,207.61 L216.157,238.48 L216.157,300.24 L269.636,331.11 L323.12,300.24 L323.12,238.48 L269.636,207.61 Z M269.636,215.69 L316.12,242.53 L316.12,296.2 L269.636,323.03 L223.157,296.2 L223.157,242.53 L269.636,215.69 L269.636,215.69 Z" id="Fill-117" fill="#9F7A45"></path>
                <path d="M269.636,207.61 L216.157,300.24 L323.12,300.24 L269.636,207.61 Z M269.636,217.61 L314.45,295.24 L224.817,295.24 L269.636,217.61 L269.636,217.61 Z" id="Fill-118" fill="#9F7A45"></path>
                <path d="M301.11,145.86 C301.11,163.2 287.04,177.27 269.696,177.27 C252.347,177.27 238.283,163.2 238.283,145.86 C238.283,128.51 252.347,114.44 269.696,114.44 C287.04,114.44 301.11,128.51 301.11,145.86 Z M301.11,392.76 C301.11,410.11 287.04,424.18 269.696,424.18 C252.347,424.18 238.283,410.11 238.283,392.76 C238.283,375.41 252.347,361.35 269.696,361.35 C287.04,361.35 301.11,375.41 301.11,392.76 Z" id="Stroke-119" stroke="#9F7A45" stroke-width="4"></path>
                <path d="M284.1,448.18 C284.1,456.14 277.649,462.58 269.696,462.58 C261.742,462.58 255.294,456.14 255.294,448.18 C255.294,440.23 261.742,433.78 269.696,433.78 C277.649,433.78 284.1,440.23 284.1,448.18 Z" id="Stroke-120" stroke="#9F7A45" stroke-width="5"></path>
                <path d="M277.798,486.23 C277.798,490.71 274.171,494.33 269.696,494.33 C265.221,494.33 261.593,490.71 261.593,486.23 C261.593,481.76 265.221,478.13 269.696,478.13 C274.171,478.13 277.798,481.76 277.798,486.23 Z" id="Stroke-121" stroke="#9F7A45" stroke-width="4"></path>
                <path d="M284.1,90.54 C284.1,82.58 277.649,76.14 269.696,76.14 C261.742,76.14 255.294,82.58 255.294,90.54 C255.294,98.49 261.742,104.94 269.696,104.94 C277.649,104.94 284.1,98.49 284.1,90.54 Z" id="Stroke-122" stroke="#9F7A45" stroke-width="5"></path>
                <path d="M277.798,52.49 C277.798,48.01 274.171,44.39 269.696,44.39 C265.221,44.39 261.593,48.01 261.593,52.49 C261.593,56.96 265.221,60.59 269.696,60.59 C274.171,60.59 277.798,56.96 277.798,52.49 Z M0.142,269.36 C0.142,248.3 17.215,231.22 38.277,231.22 C59.339,231.22 76.413,248.3 76.413,269.36 C76.413,290.42 59.339,307.5 38.277,307.5 C17.215,307.5 0.142,290.42 0.142,269.36 Z M462.86,269.36 C462.86,248.3 479.94,231.22 501,231.22 C522.06,231.22 539.13,248.3 539.13,269.36 C539.13,290.42 522.06,307.5 501,307.5 C479.94,307.5 462.86,290.42 462.86,269.36 Z M76.413,269.36 C76.413,376.08 162.923,462.58 269.638,462.58 C376.35,462.58 462.86,376.08 462.86,269.36 C462.86,162.65 376.35,76.14 269.638,76.14 C162.923,76.14 76.413,162.65 76.413,269.36 Z" id="Stroke-123" stroke="#9F7A45" stroke-width="4"></path>
                <polygon id="Stroke-124" stroke="#9F7A45" stroke-width="4" stroke-linejoin="round" points="55.722 145.86 269.638 516.37 483.55 145.86"></polygon>
                <path d="M462.86,269.36 L412.25,269.36 L483.55,145.86 L376.6,207.61 L162.679,207.61 L55.722,145.86 L127.027,269.36 L76.413,269.36 C76.413,269.36 74.25,295.91 88.346,336.36 L55.722,392.87 L162.679,331.11 L376.6,331.11 L483.55,392.87 L450.93,336.36 C450.93,336.36 463.35,305.45 462.86,269.36 Z" id="Stroke-125" stroke="#9F7A45" stroke-width="3" stroke-linecap="round" stroke-linejoin="round" stroke-dasharray="0,8"></path>
                <path d="M269.637,516.37 L269.637,392.87 L269.637,516.37 Z M269.637,145.86 L269.637,22.35 L269.637,145.86 Z" id="Stroke-126" stroke="#9F7A45" stroke-width="4"></path>
            </g>
        </g>
    </g>
</svg>